<svg 
 xmlns="http://www.w3.org/2000/svg"
 xmlns:xlink="http://www.w3.org/1999/xlink"
 width="49px" height="49px">
<path fill-rule="evenodd"  fill="rgb(255, 192, 0)"
 d="M48.281,48.1000 L23.795,48.1000 C23.504,48.1000 23.242,48.824 23.130,48.554 C23.019,48.285 23.080,47.974 23.286,47.768 L27.425,43.616 L5.448,43.616 C4.019,43.616 2.669,43.064 1.646,42.064 C0.689,41.127 0.116,39.893 0.017,38.566 C0.006,38.516 -0.000,38.464 -0.000,38.410 L-0.000,7.765 C-0.000,4.636 2.538,2.090 5.657,2.090 C6.054,2.090 6.376,2.413 6.376,2.812 L6.376,9.950 L28.700,9.950 L33.706,4.928 L36.042,2.584 L37.976,0.644 C38.390,0.228 38.941,-0.000 39.527,-0.000 C40.113,-0.000 40.663,0.228 41.078,0.644 L43.313,2.886 C43.727,3.302 43.955,3.854 43.955,4.442 C43.955,5.029 43.727,5.582 43.313,5.997 L41.380,7.936 C41.380,7.937 41.379,7.937 41.379,7.938 L39.373,9.950 L44.899,9.950 C45.296,9.950 45.618,10.273 45.618,10.671 L45.618,25.364 L47.772,23.203 C47.978,22.997 48.287,22.935 48.556,23.047 C48.825,23.159 48.1000,23.422 48.1000,23.714 L48.1000,48.278 C48.1000,48.677 48.678,48.1000 48.281,48.1000 ZM42.296,4.977 C42.590,4.682 42.590,4.202 42.296,3.907 L40.061,1.664 C39.766,1.369 39.288,1.369 38.994,1.664 L37.568,3.094 L40.871,6.407 L42.296,4.977 ZM39.853,7.427 L36.551,4.115 L35.232,5.438 L38.534,8.751 L39.853,7.427 ZM47.562,44.116 L46.235,44.116 C45.838,44.116 45.516,43.793 45.516,43.394 C45.516,42.996 45.838,42.673 46.235,42.673 L47.562,42.673 L47.562,40.498 L46.235,40.498 C45.838,40.498 45.516,40.176 45.516,39.777 C45.516,39.378 45.838,39.055 46.235,39.055 L47.562,39.055 L47.562,36.881 L46.235,36.881 C45.838,36.881 45.516,36.558 45.516,36.160 C45.516,35.761 45.838,35.438 46.235,35.438 L47.562,35.438 L47.562,33.264 L46.235,33.264 C45.838,33.264 45.516,32.941 45.516,32.542 C45.516,32.144 45.838,31.821 46.235,31.821 L47.562,31.821 L47.562,25.455 L34.909,38.148 C34.909,38.149 34.909,38.148 34.909,38.149 C34.892,38.166 34.873,38.183 34.854,38.198 C34.723,38.306 34.562,38.360 34.401,38.360 C34.240,38.360 34.078,38.306 33.947,38.198 C33.928,38.183 33.909,38.166 33.892,38.149 C33.611,37.867 33.611,37.410 33.892,37.128 L44.180,26.807 L44.180,11.393 L37.935,11.393 L23.135,26.240 C23.116,26.259 23.096,26.276 23.076,26.293 C23.072,26.296 23.068,26.298 23.064,26.302 C23.047,26.315 23.031,26.327 23.013,26.338 C23.008,26.341 23.003,26.344 22.997,26.348 C22.980,26.358 22.964,26.367 22.946,26.376 C22.940,26.379 22.933,26.382 22.927,26.385 C22.910,26.393 22.893,26.400 22.876,26.406 C22.873,26.407 22.869,26.409 22.866,26.410 L18.480,27.964 L32.769,27.964 C33.166,27.964 33.488,28.287 33.488,28.685 C33.488,29.084 33.166,29.407 32.769,29.407 L12.852,29.407 C12.455,29.407 12.133,29.084 12.133,28.685 C12.133,28.287 12.455,27.964 12.852,27.964 L15.244,27.964 C15.251,27.927 15.260,27.890 15.272,27.854 L16.228,25.139 L17.629,21.157 C17.631,21.152 17.633,21.147 17.635,21.142 C17.641,21.128 17.647,21.113 17.653,21.099 C17.657,21.090 17.661,21.080 17.666,21.071 C17.673,21.057 17.681,21.044 17.688,21.030 C17.693,21.022 17.698,21.013 17.704,21.005 C17.713,20.991 17.723,20.977 17.733,20.964 C17.738,20.957 17.743,20.950 17.748,20.943 C17.764,20.924 17.780,20.905 17.798,20.887 L21.166,17.509 C21.446,17.227 21.902,17.227 22.183,17.509 C22.463,17.791 22.463,18.247 22.183,18.529 L19.324,21.397 L22.626,24.710 L37.128,10.161 C37.128,10.161 37.129,10.160 37.129,10.160 L37.516,9.772 L34.214,6.459 L29.507,11.181 C29.507,11.181 29.507,11.181 29.507,11.181 L24.303,16.402 C24.022,16.684 23.567,16.684 23.286,16.402 C23.005,16.120 23.005,15.663 23.286,15.381 L27.262,11.393 L6.376,11.393 L6.376,25.340 C6.376,25.738 6.054,26.061 5.656,26.061 C5.259,26.061 4.937,25.738 4.937,25.340 L4.937,10.671 L4.937,3.595 C2.953,3.939 1.438,5.678 1.438,7.765 L1.438,34.633 C1.525,34.536 1.613,34.441 1.707,34.349 C2.596,33.479 3.723,32.935 4.937,32.781 L4.937,28.226 C4.937,27.827 5.259,27.504 5.657,27.504 C6.054,27.504 6.376,27.827 6.376,28.226 L6.376,33.457 C6.376,33.856 6.054,34.179 5.657,34.179 C5.585,34.179 5.514,34.181 5.444,34.184 C5.427,34.185 5.410,34.187 5.393,34.188 C5.339,34.191 5.285,34.195 5.232,34.200 C5.216,34.202 5.201,34.204 5.185,34.206 C5.130,34.212 5.075,34.219 5.020,34.227 C5.010,34.229 4.1000,34.230 4.990,34.232 C4.929,34.242 4.869,34.252 4.810,34.265 C4.806,34.265 4.802,34.266 4.799,34.267 C3.500,34.537 2.418,35.408 1.856,36.576 C1.855,36.578 1.854,36.581 1.853,36.583 C1.826,36.639 1.800,36.696 1.775,36.754 C1.770,36.767 1.764,36.780 1.759,36.794 C1.740,36.840 1.721,36.887 1.704,36.934 C1.694,36.959 1.686,36.984 1.677,37.009 C1.665,37.045 1.652,37.081 1.641,37.117 C1.629,37.153 1.618,37.190 1.608,37.226 C1.600,37.252 1.593,37.277 1.586,37.302 C1.574,37.349 1.562,37.396 1.551,37.443 C1.547,37.458 1.544,37.474 1.540,37.490 C1.528,37.546 1.516,37.602 1.506,37.658 C1.505,37.665 1.504,37.673 1.503,37.680 C1.492,37.743 1.482,37.807 1.474,37.870 C1.474,37.871 1.474,37.871 1.474,37.872 C1.457,38.007 1.446,38.143 1.442,38.280 C1.511,40.464 3.267,42.173 5.448,42.173 L28.864,42.173 L31.778,39.249 C32.027,38.999 32.412,38.971 32.692,39.163 C32.729,39.188 32.763,39.216 32.796,39.249 C33.076,39.531 33.076,39.987 32.796,40.269 L25.531,47.557 L47.562,47.557 L47.562,44.116 ZM21.311,25.430 L18.605,22.717 L17.878,24.783 L19.251,26.160 L21.311,25.430 ZM42.573,34.768 C42.779,34.562 43.088,34.500 43.357,34.612 C43.625,34.723 43.801,34.987 43.801,35.278 L43.801,43.163 C43.801,43.562 43.479,43.885 43.082,43.885 L35.222,43.885 C34.931,43.885 34.669,43.709 34.557,43.440 C34.446,43.170 34.508,42.860 34.713,42.653 L42.573,34.768 ZM42.362,42.442 L42.362,37.020 L36.958,42.442 L42.362,42.442 Z"/>
</svg>