<svg 
 xmlns="http://www.w3.org/2000/svg"
 xmlns:xlink="http://www.w3.org/1999/xlink"
 width="50px" height="50px">
<path fill-rule="evenodd"  fill="rgb(255, 192, 0)"
 d="M45.588,42.792 C45.588,44.217 44.421,45.377 42.986,45.377 C41.551,45.377 40.383,44.217 40.383,42.792 C40.383,41.367 41.551,40.207 42.986,40.207 C44.421,40.207 45.588,41.367 45.588,42.792 ZM41.926,42.792 C41.926,43.373 42.401,43.845 42.986,43.845 C43.570,43.845 44.046,43.373 44.046,42.792 C44.046,42.211 43.570,41.739 42.986,41.739 C42.401,41.739 41.926,42.211 41.926,42.792 ZM49.166,8.541 L46.193,10.100 C46.107,10.145 46.018,10.179 45.928,10.205 L32.200,23.843 L47.726,37.756 C49.142,39.024 49.948,40.765 49.997,42.658 C50.046,44.551 49.331,46.331 47.983,47.670 C46.679,48.965 44.958,49.673 43.121,49.673 C43.068,49.673 43.015,49.672 42.962,49.671 C41.066,49.629 39.316,48.840 38.036,47.449 L26.448,34.860 C26.161,34.548 26.182,34.063 26.497,33.777 C26.811,33.492 27.298,33.513 27.586,33.826 L39.174,46.415 C40.168,47.494 41.525,48.107 42.997,48.139 C44.465,48.171 45.852,47.620 46.893,46.586 C47.939,45.547 48.493,44.166 48.455,42.698 C48.417,41.229 47.792,39.877 46.693,38.894 L31.108,24.928 L30.186,25.845 L30.944,26.598 C31.480,27.131 31.776,27.839 31.776,28.592 C31.776,29.346 31.480,30.054 30.944,30.587 L29.163,32.357 C28.947,32.571 28.624,32.639 28.338,32.529 C26.797,31.935 25.046,32.300 23.878,33.461 C22.709,34.621 22.341,36.361 22.940,37.893 C23.051,38.175 22.983,38.497 22.766,38.711 L13.324,48.092 C12.086,49.322 10.439,49.1000 8.688,49.1000 C6.937,49.1000 5.291,49.322 4.052,48.092 C1.496,45.552 1.496,41.421 4.052,38.881 L13.495,29.500 C13.711,29.286 14.034,29.218 14.319,29.328 C15.861,29.922 17.612,29.557 18.780,28.396 C19.092,28.086 19.345,27.733 19.540,27.356 L15.488,22.953 C11.278,24.304 6.611,23.204 3.466,20.080 C0.164,16.800 -0.888,11.879 0.786,7.543 C0.879,7.301 1.090,7.122 1.345,7.068 C1.601,7.015 1.866,7.093 2.051,7.276 L8.105,13.291 C8.285,13.469 8.523,13.567 8.776,13.567 C9.029,13.567 9.268,13.469 9.447,13.291 L13.378,9.385 C13.558,9.207 13.656,8.970 13.656,8.719 C13.656,8.467 13.557,8.230 13.378,8.052 L7.324,2.038 C7.139,1.854 7.061,1.590 7.115,1.336 C7.169,1.083 7.349,0.873 7.593,0.780 C11.957,-0.883 16.911,0.163 20.213,3.443 C23.436,6.646 24.512,11.374 23.026,15.624 L28.268,20.320 L33.084,15.535 C33.385,15.236 33.873,15.236 34.174,15.535 C34.476,15.835 34.476,16.320 34.174,16.619 L27.537,23.213 L29.095,24.761 L44.302,9.654 L42.743,8.106 L36.797,14.013 C36.496,14.312 36.008,14.312 35.707,14.013 C35.405,13.714 35.405,13.229 35.707,12.930 L42.186,6.492 C42.213,6.402 42.249,6.313 42.294,6.226 L43.863,3.273 C44.080,2.865 44.468,2.591 44.927,2.523 C45.387,2.454 45.838,2.601 46.167,2.927 L49.514,6.253 C49.843,6.579 49.991,7.028 49.922,7.484 C49.852,7.941 49.577,8.326 49.166,8.541 ZM21.604,16.412 C21.365,16.198 21.285,15.857 21.405,15.560 C22.933,11.754 22.037,7.423 19.122,4.527 C16.541,1.962 12.798,0.968 9.311,1.844 L14.469,6.969 C14.939,7.436 15.198,8.058 15.198,8.719 C15.198,9.380 14.939,10.001 14.469,10.468 L10.537,14.374 C10.067,14.842 9.441,15.099 8.776,15.099 C8.111,15.099 7.485,14.842 7.015,14.374 L1.856,9.250 C0.975,12.715 1.975,16.433 4.557,18.997 C7.400,21.822 11.674,22.743 15.445,21.346 C15.739,21.237 16.071,21.317 16.283,21.547 L19.997,25.581 C20.012,25.039 19.923,24.490 19.718,23.965 C19.607,23.682 19.675,23.361 19.891,23.146 L21.672,21.376 C22.209,20.844 22.922,20.550 23.680,20.550 C24.439,20.550 25.152,20.844 25.688,21.376 L26.446,22.129 L27.176,21.405 L21.604,16.412 ZM28.550,26.386 L25.901,23.755 L24.597,22.460 C24.092,21.957 23.269,21.957 22.763,22.460 L21.320,23.893 C21.892,25.866 21.349,28.011 19.871,29.480 C18.392,30.949 16.233,31.489 14.248,30.919 L5.143,39.964 C3.189,41.906 3.189,45.066 5.143,47.008 C6.090,47.949 7.349,48.467 8.689,48.467 C10.028,48.467 11.287,47.949 12.234,47.008 L21.338,37.964 C20.766,35.991 21.309,33.846 22.787,32.377 L22.787,32.377 C24.265,30.908 26.425,30.369 28.410,30.938 L29.853,29.504 C30.359,29.002 30.359,28.184 29.853,27.681 L28.550,26.386 ZM45.167,4.101 L43.691,6.881 L45.535,8.713 L48.332,7.246 L45.167,4.101 ZM11.186,44.836 C11.035,44.985 10.838,45.060 10.641,45.060 C10.443,45.060 10.246,44.985 10.095,44.836 C9.794,44.536 9.794,44.052 10.095,43.752 L17.401,36.495 C17.702,36.196 18.190,36.196 18.491,36.495 C18.792,36.794 18.792,37.279 18.491,37.578 L11.186,44.836 ZM8.487,42.155 C8.336,42.304 8.139,42.379 7.942,42.379 C7.744,42.379 7.547,42.304 7.396,42.155 C7.095,41.855 7.095,41.370 7.396,41.071 L14.701,33.813 C15.003,33.514 15.491,33.514 15.792,33.813 C16.093,34.112 16.093,34.598 15.792,34.897 L8.487,42.155 Z"/>
</svg>