<svg 
 xmlns="http://www.w3.org/2000/svg"
 xmlns:xlink="http://www.w3.org/1999/xlink"
 width="34px" height="38px">
<path fill-rule="evenodd"  fill="rgb(255, 192, 0)"
 d="M31.529,13.701 L18.949,17.198 C18.473,17.331 18.133,17.774 18.133,18.260 L18.133,19.691 L15.867,19.691 L15.867,18.260 C15.867,16.800 16.887,15.494 18.337,15.073 L30.917,11.576 C31.393,11.443 31.733,11.001 31.733,10.513 L31.733,7.747 C31.733,7.127 31.235,6.640 30.600,6.640 L29.467,6.640 L29.467,7.747 C29.467,9.584 27.948,11.067 26.067,11.067 L15.867,11.067 L15.867,13.281 C15.867,14.503 14.852,15.494 13.600,15.494 C12.348,15.494 11.333,14.503 11.333,13.281 L11.333,12.174 C11.333,11.562 10.826,11.067 10.200,11.067 C9.574,11.067 9.067,11.562 9.067,12.174 L9.067,15.494 C9.067,16.716 8.052,17.707 6.800,17.707 C5.548,17.707 4.533,16.716 4.533,15.494 L4.533,11.067 L3.400,11.067 C1.519,11.067 -0.000,9.584 -0.000,7.747 L-0.000,3.320 C-0.000,1.482 1.519,-0.000 3.400,-0.000 L26.067,-0.000 C27.948,-0.000 29.467,1.482 29.467,3.320 L29.467,4.426 L30.600,4.426 C32.481,4.426 34.000,5.910 34.000,7.747 L34.000,10.514 C34.000,11.975 32.980,13.281 31.529,13.701 ZM11.957,21.989 L22.045,21.989 C22.389,21.989 22.653,22.630 22.653,22.966 L22.653,23.760 C22.653,24.054 22.548,24.187 22.336,24.395 L20.498,26.190 L21.757,32.335 C22.042,33.733 21.676,35.166 20.751,36.267 C19.827,37.368 18.460,37.1000 17.001,37.1000 C15.542,37.1000 14.175,37.368 13.251,36.267 C12.326,35.166 11.960,33.733 12.245,32.335 L13.504,26.190 L11.666,24.395 C11.454,24.187 11.334,23.906 11.334,23.612 L11.334,22.597 C11.334,22.261 11.613,21.989 11.957,21.989 Z"/>
</svg>