<svg 
 xmlns="http://www.w3.org/2000/svg"
 xmlns:xlink="http://www.w3.org/1999/xlink"
 width="49px" height="37px">
<path fill-rule="evenodd"  fill="rgb(255, 192, 0)"
 d="M46.129,36.999 L2.871,36.999 C1.285,36.999 -0.000,35.725 -0.000,34.153 C-0.000,32.581 1.285,31.307 2.871,31.307 L46.129,31.307 C47.715,31.307 48.1000,32.581 48.1000,34.153 C48.1000,35.725 47.715,36.999 46.129,36.999 ZM2.967,24.192 C2.967,17.215 6.358,11.040 11.580,7.144 L11.580,12.807 C11.580,13.594 12.222,14.230 13.016,14.230 C13.809,14.230 14.451,13.594 14.451,12.807 L14.451,5.319 C15.369,4.838 16.332,4.434 17.322,4.086 L17.322,15.653 C17.322,16.440 17.964,17.076 18.758,17.076 C19.551,17.076 20.193,16.440 20.193,15.653 L20.193,1.423 C20.193,0.637 20.837,-0.000 21.629,-0.000 L27.371,-0.000 C28.163,-0.000 28.807,0.637 28.807,1.423 L28.807,15.653 C28.807,16.440 29.449,17.076 30.242,17.076 C31.036,17.076 31.678,16.440 31.678,15.653 L31.678,4.086 C32.668,4.434 33.631,4.838 34.549,5.319 L34.549,12.807 C34.549,13.594 35.191,14.230 35.984,14.230 C36.778,14.230 37.420,13.594 37.420,12.807 L37.420,7.144 C42.641,11.040 46.033,17.215 46.033,24.192 L46.033,28.461 L2.967,28.461 L2.967,24.192 Z"/>
</svg>