<svg 
 xmlns="http://www.w3.org/2000/svg"
 xmlns:xlink="http://www.w3.org/1999/xlink"
 width="19px" height="14px">
<path fill-rule="evenodd"  fill="rgb(255, 192, 0)"
 d="M16.676,13.999 L2.323,13.999 C1.042,13.999 -0.000,12.991 -0.000,11.750 L-0.000,2.249 C-0.000,1.008 1.042,-0.000 2.323,-0.000 L16.680,-0.000 C17.962,-0.000 19.004,1.012 18.1000,2.253 L18.1000,11.750 C18.1000,12.991 17.958,13.999 16.676,13.999 ZM17.938,11.750 L17.938,2.253 C17.938,1.579 17.372,1.031 16.676,1.031 L2.323,1.031 C1.627,1.031 1.061,1.579 1.061,2.253 L1.061,11.750 C1.061,12.424 1.627,12.972 2.323,12.972 L16.680,12.972 C17.376,12.972 17.942,12.424 17.942,11.750 L17.938,11.750 ZM16.669,11.898 C16.562,12.005 16.425,12.058 16.283,12.058 C16.154,12.058 16.020,12.012 15.918,11.918 L11.192,7.571 L9.867,8.720 C9.769,8.808 9.639,8.853 9.514,8.853 C9.388,8.853 9.262,8.811 9.160,8.724 L7.870,7.609 L3.117,11.914 C3.015,12.005 2.885,12.051 2.756,12.051 C2.614,12.051 2.473,11.994 2.367,11.887 C2.166,11.678 2.178,11.354 2.390,11.160 L7.072,6.916 L2.370,2.847 C2.150,2.656 2.131,2.333 2.327,2.120 C2.524,1.907 2.858,1.888 3.078,2.078 L8.165,6.486 C8.197,6.508 8.224,6.531 8.252,6.558 C8.252,6.562 8.256,6.566 8.259,6.570 L9.510,7.650 L15.918,2.082 C16.138,1.891 16.472,1.910 16.669,2.120 C16.865,2.333 16.845,2.656 16.629,2.847 L11.982,6.882 L16.649,11.172 C16.861,11.366 16.869,11.693 16.669,11.898 Z"/>
</svg>