<svg 
 xmlns="http://www.w3.org/2000/svg"
 xmlns:xlink="http://www.w3.org/1999/xlink"
 width="38px" height="23px">
<path fill-rule="evenodd"  fill="rgb(255, 255, 255)"
 d="M18.999,-0.000 C11.739,-0.000 5.155,4.033 0.297,10.584 C-0.099,11.121 -0.099,11.871 0.297,12.408 C5.155,18.966 11.739,22.1000 18.999,22.1000 C26.259,22.1000 32.843,18.966 37.701,12.415 C38.098,11.879 38.098,11.129 37.701,10.592 C32.843,4.033 26.259,-0.000 18.999,-0.000 ZM19.520,19.598 C14.701,19.906 10.721,15.872 11.024,10.971 C11.273,6.930 14.498,3.654 18.478,3.402 C23.298,3.094 27.278,7.127 26.974,12.028 C26.718,16.062 23.492,19.337 19.520,19.598 ZM19.279,15.857 C16.683,16.022 14.537,13.852 14.708,11.216 C14.841,9.037 16.582,7.277 18.727,7.135 C21.323,6.969 23.469,9.140 23.298,11.776 C23.158,13.962 21.417,15.723 19.279,15.857 Z"/>
</svg>