<svg 
 xmlns="http://www.w3.org/2000/svg"
 xmlns:xlink="http://www.w3.org/1999/xlink"
 width="53px" height="50px">
<path fill-rule="evenodd"  fill="rgb(255, 192, 0)"
 d="M52.673,8.790 C52.277,9.182 51.633,9.182 51.237,8.790 C50.840,8.400 50.840,7.765 51.237,7.374 C51.633,6.983 52.277,6.983 52.673,7.374 C53.070,7.765 53.070,8.400 52.673,8.790 ZM51.237,18.708 L49.801,20.124 C49.603,20.319 49.343,20.417 49.083,20.417 C48.823,20.417 48.563,20.319 48.365,20.124 C47.968,19.733 47.968,19.098 48.365,18.707 L49.801,17.291 C50.197,16.900 50.840,16.900 51.237,17.291 C51.634,17.682 51.634,18.316 51.237,18.708 ZM45.492,15.874 C45.293,16.069 45.033,16.167 44.773,16.167 C44.513,16.167 44.254,16.069 44.055,15.874 C43.659,15.482 43.659,14.848 44.055,14.457 L48.365,10.207 C48.761,9.816 49.404,9.816 49.801,10.208 C50.198,10.599 50.198,11.233 49.801,11.624 L45.492,15.874 ZM48.364,3.123 C47.968,2.733 47.968,2.099 48.364,1.707 C48.761,1.317 49.404,1.317 49.801,1.707 C50.197,2.099 50.197,2.733 49.801,3.123 C49.404,3.515 48.761,3.515 48.364,3.123 ZM41.182,11.624 C40.984,11.820 40.724,11.918 40.464,11.918 C40.204,11.918 39.944,11.820 39.746,11.624 C39.349,11.233 39.349,10.599 39.746,10.208 L45.491,4.541 C45.888,4.150 46.531,4.150 46.928,4.541 C47.324,4.932 47.324,5.566 46.928,5.958 L41.182,11.624 ZM41.182,1.707 C40.786,1.317 40.786,0.682 41.182,0.291 C41.579,-0.100 42.222,-0.100 42.619,0.291 C43.015,0.682 43.015,1.317 42.619,1.707 C42.222,2.099 41.579,2.099 41.182,1.707 ZM36.874,7.374 C36.675,7.570 36.415,7.667 36.156,7.667 C35.896,7.667 35.636,7.570 35.437,7.374 C35.041,6.983 35.041,6.348 35.437,5.957 L38.310,3.125 C38.706,2.733 39.349,2.733 39.746,3.125 C40.143,3.516 40.143,4.150 39.746,4.541 L36.874,7.374 ZM32.564,3.124 C32.366,3.319 32.106,3.417 31.846,3.417 C31.586,3.417 31.326,3.319 31.128,3.124 C30.731,2.732 30.731,2.098 31.128,1.707 L32.564,0.291 C32.961,-0.100 33.604,-0.100 34.000,0.291 C34.397,0.682 34.397,1.316 34.000,1.707 L32.564,3.124 ZM31.853,6.674 L36.148,10.909 C36.153,10.914 36.158,10.919 36.163,10.924 L40.456,15.159 C40.461,15.163 40.466,15.168 40.471,15.173 L44.765,19.408 C44.771,19.413 44.776,19.419 44.781,19.424 L48.364,22.957 C48.760,23.349 48.760,23.983 48.364,24.374 L36.874,35.707 L35.436,37.123 C34.478,38.069 33.202,38.591 31.846,38.591 C30.490,38.591 29.214,38.069 28.255,37.123 L25.382,34.290 C24.986,33.900 24.342,33.900 23.946,34.290 L22.534,35.683 L11.651,47.945 C11.651,47.946 11.650,47.946 11.650,47.947 C11.649,47.947 11.649,47.947 11.649,47.947 C11.554,48.054 11.462,48.151 11.369,48.243 C10.220,49.376 8.690,49.1000 7.061,49.1000 C5.431,49.1000 3.901,49.376 2.752,48.242 C0.375,45.898 0.375,42.086 2.752,39.742 C2.843,39.652 2.938,39.564 3.043,39.473 C3.043,39.473 3.044,39.472 3.044,39.472 L15.348,28.604 L16.765,27.207 C16.956,27.017 17.062,26.766 17.062,26.498 C17.062,26.231 16.956,25.980 16.765,25.791 L13.891,22.957 C11.912,21.004 11.912,17.827 13.891,15.874 L15.329,14.456 L26.819,3.125 C27.009,2.937 27.267,2.831 27.537,2.831 C27.806,2.831 28.065,2.937 28.255,3.125 L31.839,6.659 C31.844,6.664 31.849,6.669 31.853,6.674 ZM16.008,30.710 L4.399,40.964 C4.398,40.965 4.397,40.966 4.396,40.967 C4.395,40.968 4.394,40.969 4.393,40.970 C4.318,41.035 4.251,41.097 4.188,41.159 C2.604,42.721 2.604,45.263 4.188,46.825 C4.954,47.580 5.974,47.996 7.061,47.996 C8.148,47.996 9.168,47.580 9.933,46.825 C9.995,46.764 10.057,46.699 10.123,46.626 L20.402,35.044 L16.008,30.710 ZM15.327,17.290 C14.140,18.462 14.140,20.369 15.328,21.540 L18.201,24.374 C18.776,24.942 19.093,25.696 19.093,26.499 C19.093,27.301 18.776,28.056 18.201,28.624 L17.483,29.332 L21.792,33.582 L22.510,32.874 C23.698,31.702 25.631,31.702 26.819,32.874 L29.692,35.706 C30.268,36.274 31.033,36.587 31.846,36.587 C32.660,36.587 33.425,36.274 33.1000,35.707 L34.719,34.998 L16.046,16.582 L15.327,17.290 ZM24.664,12.332 L29.691,7.375 L27.537,5.250 L17.483,15.165 L36.156,33.582 L46.209,23.666 L44.055,21.541 L39.028,26.499 C38.830,26.694 38.570,26.792 38.310,26.792 C38.050,26.792 37.790,26.694 37.592,26.499 C37.195,26.107 37.195,25.473 37.592,25.082 L42.619,20.125 L39.746,17.291 L34.718,22.249 C34.520,22.444 34.260,22.542 34.000,22.542 C33.740,22.542 33.481,22.444 33.282,22.248 C32.886,21.857 32.886,21.223 33.282,20.832 L38.309,15.874 L35.437,13.042 L30.410,17.999 C30.212,18.195 29.952,18.293 29.692,18.293 C29.432,18.293 29.172,18.195 28.974,17.999 C28.577,17.608 28.577,16.973 28.974,16.583 L34.001,11.625 L31.128,8.791 L26.101,13.749 C25.902,13.945 25.642,14.042 25.382,14.042 C25.123,14.042 24.863,13.945 24.664,13.749 C24.268,13.358 24.268,12.723 24.664,12.332 ZM9.942,42.566 C9.743,42.768 9.479,42.869 9.215,42.869 C8.959,42.869 8.703,42.774 8.506,42.584 C8.105,42.198 8.097,41.563 8.488,41.167 L13.883,35.715 C14.274,35.319 14.917,35.311 15.319,35.698 C15.720,36.084 15.728,36.718 15.336,37.114 L9.942,42.566 ZM5.624,45.409 C5.228,45.017 5.228,44.383 5.624,43.992 C6.021,43.601 6.664,43.601 7.061,43.992 C7.457,44.383 7.457,45.017 7.061,45.409 C6.664,45.800 6.021,45.800 5.624,45.409 Z"/>
</svg>