<svg 
 xmlns="http://www.w3.org/2000/svg"
 xmlns:xlink="http://www.w3.org/1999/xlink"
 width="50px" height="50px">
<path fill-rule="evenodd"  fill="rgb(255, 192, 0)"
 d="M47.500,41.500 C42.526,38.862 38.711,37.383 35.315,36.816 L35.666,36.333 C35.833,36.166 35.917,35.916 35.833,35.666 L35.052,32.542 C37.118,29.623 38.333,25.972 38.333,22.500 L38.333,19.167 L39.166,19.167 L40.833,19.167 C41.333,19.167 41.666,18.833 41.666,18.333 C41.666,17.833 41.333,17.500 40.833,17.500 L39.1000,17.500 L39.1000,16.666 C39.1000,10.083 35.666,4.500 29.167,2.666 L29.167,2.500 C29.167,1.166 28.083,-0.000 26.667,-0.000 L23.333,-0.000 C21.1000,-0.000 20.833,1.083 20.833,2.500 L20.833,2.666 C14.333,4.499 9.1000,10.083 9.1000,16.666 L9.1000,17.500 L9.167,17.500 C8.667,17.500 8.333,17.833 8.333,18.333 C8.333,18.833 8.667,19.167 9.167,19.167 L10.833,19.167 L11.667,19.167 L11.667,22.499 C11.667,25.972 12.882,29.623 14.948,32.542 L14.167,35.666 C14.167,35.833 14.167,36.166 14.333,36.333 L14.685,36.816 C11.289,37.383 7.474,38.862 2.500,41.500 C0.917,42.250 -0.000,43.833 -0.000,45.583 L-0.000,49.166 C-0.000,49.666 0.333,49.1000 0.833,49.1000 L20.833,49.1000 L21.167,49.1000 L28.833,49.1000 L29.167,49.1000 L49.166,49.1000 C49.666,49.1000 49.1000,49.666 49.1000,49.166 L49.1000,45.583 C49.1000,43.916 48.1000,42.333 47.500,41.500 ZM24.500,40.728 L25.005,39.593 L26.250,42.334 L27.065,44.166 L23.000,44.166 L24.500,40.728 ZM22.367,45.833 L27.627,45.833 L28.103,48.333 L21.867,48.333 L22.367,45.833 ZM33.750,34.166 L34.083,35.666 L33.232,36.835 C33.178,36.879 33.127,36.933 33.083,36.999 L29.617,41.799 L28.517,43.309 L26.270,38.255 C28.956,37.927 31.353,36.578 33.289,34.641 C33.311,34.620 33.332,34.599 33.354,34.578 C33.359,34.572 33.364,34.567 33.369,34.562 C33.497,34.433 33.624,34.301 33.750,34.166 ZM32.664,6.095 C32.757,6.156 32.848,6.219 32.939,6.282 C34.001,7.074 34.982,8.001 35.750,8.1000 L31.917,9.750 L32.664,6.095 ZM18.083,9.750 L14.250,8.1000 C15.018,8.001 15.999,7.074 17.061,6.282 C17.151,6.219 17.243,6.156 17.336,6.095 L18.083,9.750 ZM11.667,16.666 C11.667,14.449 12.225,12.357 13.235,10.529 L18.1000,11.666 C19.083,11.666 19.083,11.666 19.167,11.666 C19.417,11.666 19.583,11.583 19.833,11.500 C20.083,11.333 20.167,10.1000 20.083,10.750 L18.939,5.182 C19.542,4.892 20.174,4.643 20.833,4.438 L20.833,6.666 C20.833,7.167 21.167,7.500 21.667,7.500 C22.167,7.500 22.500,7.167 22.500,6.666 L22.500,3.333 L22.500,2.500 C22.500,2.083 22.833,1.666 23.333,1.666 L26.667,1.666 C27.083,1.666 27.500,1.1000 27.500,2.500 L27.500,3.333 L27.500,6.666 C27.500,7.167 27.833,7.500 28.333,7.500 C28.833,7.500 29.166,7.167 29.166,6.666 L29.166,4.438 C29.848,4.650 30.500,4.908 31.121,5.211 L29.1000,10.666 C29.1000,10.917 30.083,11.250 30.250,11.417 C30.416,11.583 30.583,11.666 30.833,11.666 C30.916,11.666 30.916,11.666 30.1000,11.666 L36.727,10.461 C37.761,12.305 38.333,14.421 38.333,16.666 L38.333,17.500 L37.500,17.500 L12.500,17.500 L11.667,17.500 L11.667,16.666 L11.667,16.666 ZM13.333,19.167 L36.666,19.167 L36.666,22.500 C36.666,26.133 35.420,29.362 33.548,31.817 L33.500,31.833 C33.417,31.916 33.333,31.1000 33.250,32.083 C32.831,32.642 32.388,33.152 31.926,33.611 C29.964,35.439 27.623,36.547 25.368,36.656 C25.255,36.608 25.127,36.583 24.1000,36.583 C24.872,36.583 24.756,36.608 24.653,36.657 C23.272,36.594 21.860,36.156 20.520,35.408 C19.164,34.628 17.887,33.505 16.750,32.083 C16.667,31.1000 16.583,31.916 16.500,31.833 L16.451,31.817 C14.580,29.362 13.333,26.133 13.333,22.500 L13.333,19.167 L13.333,19.167 ZM23.729,38.255 L21.483,43.309 L20.383,41.799 L16.917,36.1000 C16.890,36.973 16.861,36.947 16.830,36.921 L15.917,35.666 L16.250,34.166 C16.363,34.288 16.477,34.406 16.593,34.523 C18.549,36.524 20.989,37.920 23.729,38.255 ZM1.667,45.583 C1.667,44.500 2.250,43.499 3.250,42.1000 C8.562,40.178 12.386,38.761 15.792,38.339 L20.765,45.176 L20.133,48.333 L1.667,48.333 L1.667,45.583 ZM48.333,48.333 L29.867,48.333 L29.235,45.176 L34.262,38.264 C37.656,38.777 41.548,40.192 46.750,42.916 C47.750,43.500 48.333,44.500 48.333,45.583 L48.333,48.333 Z"/>
</svg>