<svg 
 xmlns="http://www.w3.org/2000/svg"
 xmlns:xlink="http://www.w3.org/1999/xlink"
 width="62px" height="42px">
<path fill-rule="evenodd"  fill="rgb(255, 192, 0)"
 d="M56.573,20.501 L53.223,20.501 L53.223,32.647 C55.483,32.962 57.345,34.929 57.345,37.303 C57.331,39.913 55.177,42.012 52.545,41.999 L39.409,41.999 C36.763,41.999 34.622,39.887 34.622,37.277 C34.622,34.667 36.763,32.555 39.409,32.555 L40.858,32.555 L40.858,26.128 L37.906,26.128 C36.404,26.128 35.141,24.947 35.141,23.478 L35.141,20.488 L32.880,20.488 C32.748,20.488 32.628,20.475 32.495,20.448 L23.334,17.746 C22.776,17.576 22.377,17.064 22.377,16.487 L22.377,16.422 L14.905,16.422 C14.705,16.422 14.519,16.382 14.333,16.303 L13.814,16.067 L8.629,13.588 C8.177,13.365 7.884,12.906 7.884,12.408 L7.884,12.106 L1.330,12.106 C0.598,12.106 0.000,11.516 0.000,10.795 C0.000,10.073 0.598,9.483 1.330,9.483 L7.898,9.483 L7.898,8.132 C7.898,7.620 8.190,7.175 8.642,6.952 L14.346,4.223 C14.519,4.145 14.719,4.105 14.918,4.105 L22.563,4.105 C22.709,3.829 22.962,3.620 23.254,3.502 L32.415,0.079 C32.575,0.026 32.734,-0.000 32.907,-0.000 L56.680,0.577 C59.658,0.642 62.025,3.042 61.998,5.981 L61.998,15.136 C61.998,15.149 61.998,15.176 61.998,15.189 C61.985,18.140 59.565,20.514 56.573,20.501 ZM13.070,7.751 L10.544,8.958 L10.544,11.595 L13.070,12.801 L13.070,7.751 ZM22.377,6.729 L15.729,6.729 L15.729,13.811 L22.377,13.811 L22.377,6.729 ZM31.551,3.200 L25.036,5.626 L25.036,15.530 L31.551,17.471 L31.551,3.200 ZM39.409,35.191 C38.850,35.191 38.318,35.428 37.920,35.821 L37.906,35.847 C37.507,36.241 37.281,36.765 37.281,37.316 L37.281,37.329 C37.295,38.471 38.239,39.402 39.409,39.389 L52.545,39.389 C53.103,39.402 53.648,39.179 54.047,38.785 C54.446,38.392 54.672,37.867 54.672,37.316 C54.672,36.149 53.728,35.205 52.545,35.191 L51.854,35.191 C51.840,35.191 51.814,35.191 51.800,35.191 C51.096,35.179 50.551,34.601 50.564,33.919 L50.564,20.501 L43.517,20.501 L43.517,33.919 C43.517,33.932 43.517,33.932 43.517,33.945 C43.490,34.654 42.892,35.218 42.174,35.191 L39.409,35.191 ZM37.800,23.492 C37.800,23.517 37.880,23.517 37.906,23.517 L40.858,23.517 L40.858,20.501 L37.800,20.501 L37.800,23.492 ZM59.339,5.981 C59.339,4.485 58.129,3.252 56.613,3.200 L34.210,2.649 L34.210,17.877 L56.573,17.877 C56.587,17.877 56.613,17.877 56.627,17.877 C58.142,17.851 59.352,16.631 59.339,15.136 L59.339,5.981 ZM54.553,15.084 C53.821,15.084 53.223,14.493 53.223,13.772 L53.223,7.345 C53.223,6.623 53.821,6.033 54.553,6.033 C55.284,6.033 55.882,6.623 55.882,7.345 L55.882,13.772 C55.882,14.493 55.284,15.084 54.553,15.084 ZM50.298,15.084 C49.567,15.084 48.968,14.493 48.968,13.772 L48.968,7.345 C48.968,6.623 49.567,6.033 50.298,6.033 C51.029,6.033 51.627,6.623 51.627,7.345 L51.627,13.772 C51.627,14.493 51.029,15.084 50.298,15.084 ZM46.176,15.084 C45.445,15.084 44.847,14.493 44.847,13.772 L44.847,7.345 C44.847,6.623 45.445,6.033 46.176,6.033 C46.908,6.033 47.506,6.623 47.506,7.345 L47.506,13.772 C47.506,14.493 46.908,15.084 46.176,15.084 Z"/>
</svg>