<svg 
 xmlns="http://www.w3.org/2000/svg"
 xmlns:xlink="http://www.w3.org/1999/xlink"
 width="19px" height="20px">
<path fill-rule="evenodd"  fill="rgb(37, 44, 48)"
 d="M18.703,18.216 L14.021,13.266 C15.225,11.811 15.885,9.980 15.885,8.075 C15.885,3.622 12.321,-0.000 7.941,-0.000 C3.561,-0.000 -0.002,3.622 -0.002,8.075 C-0.002,12.527 3.561,16.149 7.941,16.149 C9.586,16.149 11.152,15.645 12.492,14.688 L17.210,19.677 C17.407,19.885 17.673,19.1000 17.957,19.1000 C18.226,19.1000 18.481,19.895 18.675,19.705 C19.086,19.303 19.099,18.635 18.703,18.216 ZM7.941,2.106 C11.179,2.106 13.812,4.784 13.812,8.075 C13.812,11.366 11.179,14.043 7.941,14.043 C4.704,14.043 2.070,11.366 2.070,8.075 C2.070,4.784 4.704,2.106 7.941,2.106 Z"/>
</svg>