<svg 
 xmlns="http://www.w3.org/2000/svg"
 xmlns:xlink="http://www.w3.org/1999/xlink"
 width="65px" height="51px">
<path fill-rule="evenodd"  fill="rgb(255, 192, 0)"
 d="M59.468,44.951 L51.783,44.951 C51.257,44.951 50.831,44.529 50.831,44.008 C50.831,43.487 51.257,43.065 51.783,43.065 L53.184,43.065 L56.020,34.636 C56.149,34.254 56.508,33.996 56.913,33.991 L49.246,11.700 L48.641,11.991 C48.168,12.219 47.599,12.024 47.369,11.555 C47.139,11.086 47.336,10.522 47.809,10.294 L51.207,8.659 C51.692,8.424 51.915,7.852 51.713,7.357 C51.609,7.104 51.413,6.906 51.159,6.799 C50.905,6.692 50.625,6.690 50.369,6.792 L31.775,14.242 C31.347,14.416 31.022,14.767 30.889,15.204 L29.156,20.884 L33.004,20.884 L33.864,17.384 C33.932,17.111 34.118,16.882 34.374,16.759 L44.225,12.019 C44.698,11.791 45.268,11.987 45.497,12.455 C45.727,12.924 45.530,13.488 45.057,13.716 L35.609,18.262 L34.638,22.245 L37.354,31.213 C37.466,31.583 37.523,31.967 37.523,32.353 L37.523,36.950 C37.523,38.026 36.639,38.902 35.553,38.902 L32.434,38.902 L32.434,41.048 L37.588,41.048 C37.589,41.048 37.589,41.048 37.590,41.048 C37.591,41.048 37.592,41.048 37.593,41.048 C40.363,41.048 42.616,43.280 42.616,46.024 C42.616,48.767 40.363,50.1000 37.593,50.1000 C37.592,50.1000 37.591,50.999 37.590,50.999 C37.589,50.999 37.589,50.1000 37.588,50.1000 L5.023,50.1000 C2.253,50.1000 -0.000,48.767 -0.000,46.024 C-0.000,43.280 2.253,41.047 5.023,41.048 L10.177,41.048 L10.177,38.902 L7.058,38.902 C5.411,38.902 4.071,37.574 4.071,35.942 L4.071,28.885 C4.071,27.253 5.411,25.925 7.058,25.925 L25.442,25.925 L25.442,22.835 C25.442,21.843 26.193,21.024 27.161,20.901 L29.066,14.658 C29.365,13.676 30.091,12.888 31.057,12.495 L48.534,5.492 L48.797,2.253 C48.861,1.471 49.387,0.805 50.138,0.557 L51.529,0.098 C52.042,-0.071 52.608,-0.023 53.084,0.230 C53.559,0.483 53.913,0.924 54.054,1.440 L63.376,35.595 C64.379,36.587 64.1000,37.958 64.1000,39.471 C64.1000,42.493 62.518,44.951 59.468,44.951 ZM37.593,49.113 C39.313,49.113 40.712,47.727 40.712,46.024 C40.712,44.320 39.313,42.934 37.593,42.934 C35.874,42.934 34.475,44.320 34.475,46.024 C34.475,47.727 35.874,49.113 37.593,49.113 ZM5.023,42.934 C3.303,42.934 1.904,44.320 1.904,46.024 C1.904,47.727 3.303,49.113 5.023,49.113 C6.742,49.113 8.141,47.727 8.141,46.024 C8.141,44.320 6.742,42.934 5.023,42.934 ZM8.956,42.934 C9.637,43.783 10.046,44.857 10.046,46.024 C10.046,47.190 9.637,48.263 8.956,49.113 L33.660,49.113 C32.979,48.263 32.571,47.190 32.571,46.024 C32.571,44.857 32.979,43.784 33.660,42.934 L8.956,42.934 ZM26.317,32.158 C25.753,31.600 25.442,30.856 25.442,30.066 L25.442,27.811 L7.058,27.811 C6.461,27.811 5.975,28.293 5.975,28.885 L5.975,35.942 C5.975,36.534 6.461,37.015 7.058,37.015 L13.164,37.015 C13.690,37.015 14.116,37.437 14.116,37.958 C14.116,38.479 13.690,38.901 13.164,38.901 L12.081,38.901 L12.081,41.047 L30.530,41.047 L30.530,38.901 L17.235,38.901 C16.709,38.901 16.283,38.479 16.283,37.958 C16.283,37.437 16.709,37.015 17.235,37.015 L35.553,37.015 C35.589,37.015 35.618,36.986 35.618,36.950 L35.619,36.950 L35.619,34.869 L30.290,34.869 C29.492,34.869 28.742,34.561 28.178,34.002 L26.317,32.158 ZM27.412,22.770 C27.376,22.770 27.346,22.799 27.346,22.835 L27.346,30.066 C27.346,30.353 27.459,30.622 27.663,30.825 L29.524,32.668 C29.729,32.871 30.001,32.982 30.290,32.982 L35.619,32.982 L35.619,32.353 C35.619,32.150 35.589,31.949 35.530,31.755 L32.823,22.816 C32.815,22.789 32.789,22.770 32.760,22.770 L27.412,22.770 ZM52.216,1.932 C52.214,1.924 52.208,1.905 52.183,1.892 C52.158,1.879 52.138,1.885 52.132,1.888 L50.740,2.347 C50.715,2.355 50.698,2.377 50.696,2.404 L50.498,4.841 C50.972,4.799 51.452,4.872 51.903,5.061 C52.625,5.365 53.184,5.929 53.478,6.649 C54.054,8.058 53.423,9.686 52.041,10.355 L50.973,10.869 L58.925,33.990 L59.468,33.990 C60.009,33.990 60.531,34.068 61.026,34.212 L52.216,1.932 ZM59.468,35.876 L57.610,35.876 L55.192,43.064 L59.468,43.064 C61.468,43.064 63.096,41.452 63.096,39.470 C63.096,37.489 61.468,35.876 59.468,35.876 ZM15.200,31.844 L9.093,31.844 C8.568,31.844 8.141,31.422 8.141,30.901 C8.141,30.380 8.568,29.958 9.093,29.958 L15.200,29.958 C15.725,29.958 16.152,30.380 16.152,30.901 C16.152,31.422 15.725,31.844 15.200,31.844 ZM29.447,46.967 L13.164,46.967 C12.638,46.967 12.212,46.544 12.212,46.024 C12.212,45.503 12.638,45.080 13.164,45.080 L29.447,45.080 C29.973,45.080 30.399,45.503 30.399,46.024 C30.399,46.544 29.973,46.967 29.447,46.967 ZM5.028,46.967 C4.502,46.967 4.071,46.544 4.071,46.024 C4.071,45.503 4.492,45.080 5.018,45.080 L5.028,45.080 C5.554,45.080 5.980,45.503 5.980,46.024 C5.980,46.544 5.554,46.967 5.028,46.967 ZM37.588,45.080 L37.599,45.080 C38.124,45.080 38.551,45.503 38.551,46.024 C38.551,46.544 38.124,46.967 37.599,46.967 C37.073,46.967 36.641,46.544 36.641,46.024 C36.641,45.503 37.063,45.080 37.588,45.080 Z"/>
</svg>