<svg 
 xmlns="http://www.w3.org/2000/svg"
 xmlns:xlink="http://www.w3.org/1999/xlink"
 width="38px" height="38px">
<path fill-rule="evenodd"  fill="rgb(255, 192, 0)"
 d="M37.069,22.324 L34.112,22.805 C33.741,24.281 33.159,25.684 32.375,26.992 L34.075,29.373 C34.391,29.816 34.341,30.423 33.956,30.807 L30.808,33.956 C30.421,34.340 29.815,34.389 29.374,34.074 L26.992,32.374 C25.684,33.158 24.282,33.741 22.805,34.111 L22.325,37.069 C22.235,37.606 21.771,37.1000 21.227,37.1000 L16.773,37.1000 C16.229,37.1000 15.764,37.606 15.675,37.069 L15.195,34.112 C13.718,33.741 12.316,33.158 11.008,32.374 L8.626,34.074 C8.184,34.389 7.576,34.340 7.192,33.956 L4.044,30.808 C3.659,30.423 3.609,29.816 3.925,29.374 L5.625,26.992 C4.842,25.684 4.259,24.281 3.888,22.805 L0.931,22.324 C0.394,22.235 -0.000,21.771 -0.000,21.226 L-0.000,16.773 C-0.000,16.228 0.394,15.764 0.931,15.675 L3.888,15.194 C4.259,13.718 4.841,12.316 5.625,11.007 L3.925,8.626 C3.609,8.183 3.659,7.577 4.043,7.192 L7.192,4.043 C7.576,3.657 8.183,3.606 8.626,3.924 L11.008,5.625 C12.316,4.841 13.718,4.259 15.195,3.888 L15.675,0.930 C15.764,0.393 16.229,-0.000 16.773,-0.000 L21.227,-0.000 C21.771,-0.000 22.235,0.393 22.325,0.930 L22.805,3.888 C24.281,4.259 25.684,4.841 26.992,5.625 L29.374,3.924 C29.815,3.606 30.421,3.657 30.808,4.043 L33.956,7.192 C34.341,7.577 34.391,8.183 34.075,8.626 L32.375,11.007 C33.158,12.316 33.741,13.718 34.112,15.194 L37.069,15.675 C37.606,15.764 37.1000,16.228 37.1000,16.773 L37.1000,21.226 C37.1000,21.771 37.606,22.235 37.069,22.324 ZM18.1000,6.754 C12.247,6.754 6.754,12.247 6.754,18.999 C6.754,25.752 12.247,31.246 18.1000,31.246 C25.752,31.246 31.246,25.752 31.246,18.999 C31.246,12.247 25.752,6.754 18.1000,6.754 ZM18.1000,29.019 C16.048,29.019 13.417,27.712 11.582,25.674 C12.012,24.282 12.790,23.043 13.857,22.097 C15.083,23.591 16.921,24.566 18.1000,24.566 C21.079,24.566 22.917,23.591 24.143,22.097 C25.210,23.043 25.988,24.282 26.418,25.674 C24.582,27.712 21.952,29.019 18.1000,29.019 ZM18.1000,22.340 C16.544,22.340 14.547,20.342 14.547,17.886 C14.547,15.430 16.544,13.433 18.1000,13.433 C21.456,13.433 23.453,15.430 23.453,17.886 C23.453,20.342 21.456,22.340 18.1000,22.340 Z"/>
</svg>