<svg 
 xmlns="http://www.w3.org/2000/svg"
 xmlns:xlink="http://www.w3.org/1999/xlink"
 width="38px" height="27px">
<path fill-rule="evenodd"  fill="rgb(255, 255, 255)"
 d="M37.185,7.782 L33.168,7.782 L33.168,7.976 C33.168,8.297 32.988,8.592 32.711,8.735 L29.533,10.329 L29.215,10.481 C29.101,10.531 28.987,10.557 28.865,10.557 L24.285,10.557 L24.285,10.599 C24.285,10.970 24.041,11.299 23.698,11.408 L18.084,13.145 C18.002,13.162 17.929,13.170 17.847,13.170 L16.462,13.170 L16.462,15.093 C16.462,16.037 15.688,16.796 14.767,16.796 L12.958,16.796 L12.958,20.928 L13.846,20.928 C15.468,20.928 16.780,22.286 16.780,23.964 C16.780,25.642 15.468,26.999 13.846,26.999 L5.795,26.999 C4.181,27.008 2.861,25.659 2.853,23.981 C2.853,22.455 3.994,21.190 5.379,20.987 L5.379,13.179 L3.326,13.179 C1.492,13.187 0.009,11.661 0.001,9.764 C0.001,9.756 0.001,9.739 0.001,9.730 L0.001,3.844 C-0.015,1.956 1.435,0.413 3.261,0.370 L17.831,-0.001 C17.937,-0.001 18.035,0.016 18.133,0.050 L23.747,2.251 C23.927,2.327 24.081,2.462 24.171,2.639 L28.857,2.639 C28.979,2.639 29.101,2.664 29.207,2.715 L32.703,4.469 C32.980,4.612 33.159,4.899 33.159,5.227 L33.159,6.096 L37.185,6.096 C37.633,6.096 37.1000,6.476 37.1000,6.939 C37.1000,7.403 37.633,7.782 37.185,7.782 ZM14.767,15.118 C14.783,15.118 14.832,15.118 14.832,15.101 L14.832,13.179 L12.958,13.179 L12.958,15.118 L14.767,15.118 ZM4.491,23.989 C4.491,24.343 4.630,24.680 4.874,24.933 C5.119,25.186 5.453,25.329 5.795,25.321 L13.846,25.321 C14.563,25.329 15.142,24.731 15.150,23.998 L15.150,23.989 C15.150,23.635 15.011,23.298 14.767,23.045 L14.759,23.028 C14.514,22.775 14.188,22.623 13.846,22.623 L12.151,22.623 C11.711,22.640 11.345,22.277 11.328,21.822 C11.328,21.813 11.328,21.813 11.328,21.805 L11.328,13.179 L7.009,13.179 L7.009,21.805 C7.017,22.243 6.683,22.614 6.251,22.623 C6.243,22.623 6.227,22.623 6.219,22.623 L5.795,22.623 C5.070,22.631 4.491,23.239 4.491,23.989 ZM17.033,1.703 L3.301,2.057 C2.372,2.091 1.631,2.883 1.631,3.844 L1.631,9.730 C1.623,10.692 2.364,11.476 3.293,11.493 C3.301,11.493 3.318,11.493 3.326,11.493 L17.033,11.493 L17.033,1.703 ZM22.655,3.617 L18.662,2.057 L18.662,11.231 L22.655,9.983 L22.655,3.617 ZM28.360,4.325 L24.285,4.325 L24.285,8.878 L28.360,8.878 L28.360,4.325 ZM31.538,5.758 L29.989,4.983 L29.989,8.229 L31.538,7.453 L31.538,5.758 ZM4.564,3.878 C5.013,3.878 5.379,4.258 5.379,4.722 L5.379,8.853 C5.379,9.317 5.013,9.696 4.564,9.696 C4.116,9.696 3.750,9.317 3.750,8.853 L3.750,4.722 C3.750,4.258 4.116,3.878 4.564,3.878 ZM7.172,3.878 C7.620,3.878 7.987,4.258 7.987,4.722 L7.987,8.853 C7.987,9.317 7.620,9.696 7.172,9.696 C6.724,9.696 6.357,9.317 6.357,8.853 L6.357,4.722 C6.357,4.258 6.724,3.878 7.172,3.878 ZM9.698,3.878 C10.147,3.878 10.513,4.258 10.513,4.722 L10.513,8.853 C10.513,9.317 10.147,9.696 9.698,9.696 C9.250,9.696 8.883,9.317 8.883,8.853 L8.883,4.722 C8.883,4.258 9.250,3.878 9.698,3.878 Z"/>
</svg>